<mxfile host="app.diagrams.net" modified="2024-08-04T03:03:47.450Z" agent="Mozilla/5.0 (Windows NT 10.0; Win64; x64) AppleWebKit/537.36 (KHTML, like Gecko) Chrome/121.0.0.0 Safari/537.36" version="24.3.1" etag="Aaqwfwhz8gDkjIhLqe5z" type="github">
  <diagram name="第 1 页" id="ZK2xY_rVGlGZKuKayVDl">
    <mxGraphModel>
      <root>
        <mxCell id="0" />
        <mxCell id="1" parent="0" />
      </root>
    </mxGraphModel>
  </diagram>
</mxfile>
